<svg width="25" height="23" viewBox="0 0 25 23" fill="none" xmlns="http://www.w3.org/2000/svg">
<g clip-path="url(#clip0_355_2103)">
<path d="M22.3605 9.35155C23.1661 9.73685 24.0161 10.4312 24.015 11.5118C24.0139 12.5925 23.1611 13.285 22.356 13.6687C21.5222 14.0646 20.513 14.2545 19.694 14.2536L14.3813 14.2482L10.6533 21.3434C10.4737 21.6856 10.1978 21.9734 9.85637 22.1743C9.51497 22.3753 9.12162 22.4815 8.72044 22.4811L6.73123 22.4791C6.62676 22.4789 6.52358 22.4571 6.42884 22.4151C6.33411 22.373 6.25011 22.3118 6.18266 22.2357C6.11522 22.1596 6.06595 22.0704 6.03828 21.9743C6.01061 21.8782 6.0052 21.7775 6.02244 21.6792L7.35153 14.1188L4.10915 13.6005L2.2102 15.4083C2.10945 15.5045 1.98103 15.57 1.84123 15.5964C1.70142 15.6229 1.55653 15.6091 1.42492 15.5569C1.29331 15.5047 1.18091 15.4164 1.10196 15.3032C1.02301 15.19 0.98108 15.057 0.981475 14.921L0.988514 8.05538C0.988398 7.91941 1.0306 7.78648 1.10978 7.67343C1.18896 7.56038 1.30155 7.47231 1.43326 7.42038C1.56498 7.36845 1.7099 7.355 1.84965 7.38173C1.9894 7.40847 2.11768 7.47419 2.21824 7.57056L4.11348 9.38365L7.35692 8.87068L6.04332 1.30753C6.02629 1.2092 6.0319 1.10852 6.05977 1.01247C6.08763 0.916422 6.13709 0.827315 6.20469 0.751339C6.27229 0.675363 6.35642 0.61434 6.45124 0.572508C6.54606 0.530677 6.64928 0.50904 6.75375 0.509101L8.74297 0.511141C9.14414 0.511565 9.53727 0.618609 9.87826 0.820267C10.2192 1.02192 10.4946 1.31022 10.6734 1.65281L14.3869 8.75568L19.6997 8.76113C20.5172 8.76197 21.5289 8.95524 22.3605 9.35155Z" fill="#CFD43E"/>
</g>
<defs>
<clipPath id="clip0_355_2103">
<rect width="21.97" height="23.03" fill="white" transform="translate(24.0262 0.52681) rotate(90.0587)"/>
</clipPath>
</defs>
</svg>
