<svg width="375" height="501" viewBox="0 0 375 501" fill="none" xmlns="http://www.w3.org/2000/svg">
<path d="M244.863 0.450882C240.818 1.18532 233.055 3.67108 231.242 4.80098C229.987 5.53542 229.383 6.60881 228.174 9.99849C225.664 17.1168 223.247 20.902 221.852 19.8851C221.201 19.3766 221.294 15.8175 222.085 12.2583C222.457 10.5634 222.782 9.09457 222.782 8.9816C222.782 8.86861 222.457 9.03809 221.992 9.32056C221.573 9.65953 220.737 12.0888 219.993 15.1395C219.295 18.0773 218.459 21.128 218.133 21.9754C217.483 23.6702 216.367 24.4612 215.716 23.6702C214.972 22.7663 214.461 18.8682 214.74 16.3824C214.879 15.0265 214.833 13.9531 214.647 13.9531C213.438 13.9531 187.918 33.6698 186.57 35.6471C186.151 36.2686 186.523 36.4945 188.708 36.7205C191.59 37.116 215.484 38.1329 226.129 38.4154C234.682 38.5849 235.612 39.8277 228.593 41.5791C222.549 43.1044 216.739 43.6129 205.35 43.6129C193.031 43.5564 188.011 43.1044 178.016 41.0141C174.948 40.3362 172.298 40.0537 172.113 40.2797C171.88 40.5622 170.532 44.4603 169.044 48.9234C165.837 58.6405 164.535 60.6178 159.98 62.4256C156.354 63.838 152.96 64.6854 148.684 65.1374L145.523 65.4764L145.848 70.0524C146.034 72.5947 146.638 77.2273 147.243 80.3345C150.776 98.4128 153.053 119.316 153.053 133.157C153.053 139.597 152.774 141.801 151.938 141.462C150.962 141.066 149.381 131.688 146.266 107.565C145.104 98.8083 144.872 97.6219 144.314 98.5258C143.152 100.503 130.926 130.671 128.462 137.677C127.114 141.575 125.069 148.185 123.907 152.365C122.745 156.546 121.397 160.953 120.932 162.082C117.027 171.461 115.725 189.595 118.189 200.273C120.885 212.024 125.348 217.108 137.388 222.193C145.523 225.583 161.653 226.486 173.507 224.17C181.177 222.645 191.358 218.634 198.47 214.284C203.955 210.894 215.205 202.024 221.248 196.375C257.972 161.517 261.69 157.393 273.079 138.92C284.84 119.768 293.068 98.0173 296.787 76.2104C297.624 71.1258 297.81 68.0751 297.903 56.8892C297.996 44.6863 297.903 43.0479 296.834 36.8335C296.183 32.8789 295.067 28.4158 294.184 26.0995C293.347 23.8962 292.371 21.241 292.046 20.1676C290.93 16.6649 287.908 11.3544 285.538 8.64262C283.074 5.87437 278.053 2.59769 273.823 1.12881C270.895 0.111908 249.465 -0.453033 244.863 0.450882ZM279.169 7.90819C282.47 9.99849 283.492 11.5804 286.188 18.5292C290.233 28.9807 291.767 40.0537 291.767 59.4314C291.813 73.7811 291.581 76.7188 289.675 88.2438C287.908 98.6388 283.539 109.655 275.869 122.762C273.126 127.451 269.547 133.666 267.873 136.603C259.645 151.009 251.417 161.291 236.728 175.585C222.41 189.482 214.415 196.375 203.583 204.284C192.473 212.363 180.015 218.012 168.394 220.216C163.792 221.063 149.799 220.555 145.058 219.368C135.947 216.995 126.928 209.877 123.163 202.024C121.722 199.03 120.513 192.872 120.56 188.917V185.98L121.397 188.804C124.976 200.951 131.577 209.256 141.246 213.719C151.566 218.464 168.859 217.617 183.037 211.628C196.61 205.922 213.299 193.042 236.03 170.783C250.72 156.433 257.46 147.563 268.291 128.581C270.616 124.4 273.916 118.694 275.543 115.926C278.565 110.729 283.492 99.3732 284.794 94.6277C287.165 85.871 288.327 74.233 288.327 59.4314C288.327 33.8958 284.98 19.3766 276.705 9.03809C275.45 7.39973 274.381 5.93088 274.381 5.76138C274.381 5.19644 276.287 6.04387 279.169 7.90819ZM262.016 18.6422C262.76 19.2636 262.806 19.6026 262.341 20.676C261.551 22.4274 256.624 26.156 253.602 27.3424C251.324 28.1898 251.045 28.1898 250.394 27.3989C249.744 26.608 249.744 26.382 250.394 24.8001C251.324 22.5968 253.695 20.3935 256.577 19.0377C259.227 17.7383 260.9 17.6253 262.016 18.6422ZM268.245 26.7775C268.663 30.3931 260.389 36.3816 257.693 34.3477C255.368 32.5399 262.946 24.9696 266.711 25.3651C267.734 25.4781 268.152 25.8735 268.245 26.7775ZM242.817 58.6405C243.515 60.3353 244.537 64.3465 245.095 67.6232C246.35 74.798 246.164 83.7807 244.63 91.351C243.236 98.3563 239.238 107.847 235.751 112.48C230.359 119.655 229.708 118.751 233.52 109.429C237.053 100.673 237.936 98.0173 239.284 91.4075C240.958 83.3287 241.562 74.0636 240.958 66.3238C239.982 54.3469 240.4 52.765 242.817 58.6405ZM264.061 95.0796C264.247 96.718 262.062 99.7687 259.738 101.012C256.159 102.989 253.23 101.972 254.392 99.1472C256.205 94.9101 263.689 91.7464 264.061 95.0796ZM165.93 112.254C168.254 113.497 169.091 115.87 167.696 117.169C165.651 118.92 160.956 117.226 160.259 114.457C159.98 113.497 160.166 112.932 160.956 112.141C162.258 110.842 163.466 110.898 165.93 112.254ZM166.209 121.858C170.486 123.835 172.066 127.169 169.137 128.129C166.209 129.089 160.491 125.7 160.491 123.045C160.491 120.559 162.443 120.163 166.209 121.858ZM233.334 132.592C234.078 134.4 234.078 141.518 233.334 143.27C233.055 144.004 232.404 144.908 231.986 145.247C230.034 146.716 228.453 141.405 229.29 136.095C230.034 131.18 232.033 129.428 233.334 132.592ZM225.106 134.852C225.943 136.716 226.175 141.179 225.618 143.665C224.595 148.185 221.945 151.461 220.876 149.428C219.9 147.62 220.737 138.694 222.131 135.247C222.921 133.44 224.409 133.214 225.106 134.852ZM203.118 140.897C203.397 141.857 198.935 145.303 195.169 146.998C186.198 151.066 174.995 151.179 167.464 147.224C165.093 145.981 163.838 144.682 164.396 144.061C164.535 143.891 168.998 143.778 174.344 143.835C184.338 143.948 189.033 143.383 197.215 141.123C201.538 139.936 202.84 139.88 203.118 140.897ZM200.004 164.907C202.003 167.562 200.422 172.138 197.494 172.138C195.634 172.138 193.961 170.161 193.961 167.958C193.961 164.229 197.912 162.195 200.004 164.907ZM138.457 165.698C138.968 168.24 138.317 180.839 137.527 183.098C136.737 185.358 136.319 185.584 135.296 184.115C132.832 180.669 133.018 170.444 135.575 165.642C136.597 163.721 138.085 163.777 138.457 165.698ZM144.872 169.201C146.452 172.929 146.359 183.381 144.686 186.714C142.687 190.669 141.2 186.884 141.2 178.07C141.246 169.201 143.012 164.851 144.872 169.201ZM204.56 175.302C204.699 176.771 204.42 177.336 203.258 178.353C201.538 179.878 198.656 180.443 197.261 179.539C195.867 178.579 196.006 176.432 197.587 175.076C199.4 173.494 200.004 173.325 202.328 173.438C204.327 173.551 204.42 173.664 204.56 175.302Z" fill="#C68282"/>
<path d="M330.861 21.0148C330.629 21.1278 329.188 21.3538 327.7 21.5797C326.213 21.8057 325.097 22.0882 325.236 22.2577C325.376 22.4837 327.003 23.3311 328.862 24.235C335.556 27.5117 341.134 32.2573 347.642 40.1665C352.384 45.929 356.661 52.8779 356.661 54.7987C356.661 55.8156 356.614 55.8156 355.313 54.7987C354.569 54.2337 351.919 51.522 349.362 48.8102C339.089 37.6808 330.768 31.2968 322.261 27.8507C315.149 25.0259 314.173 24.9129 307.014 26.8903C303.621 27.7942 300.738 28.6416 300.692 28.6981C300.599 28.8111 300.878 31.1839 301.343 34.0086C303.156 45.0251 303.621 56.4935 302.737 67.9055C300.506 95.9269 287.49 129.372 268.71 155.303L265.549 159.653V166.037C265.549 179.483 262.62 192.137 256.252 206.035C254.718 209.312 253.276 213.097 253.044 214.509C252.207 219.085 250.766 226.091 250.487 227.221C250.162 228.294 250.859 228.746 257.739 231.966C261.923 233.944 270.197 238.407 276.147 241.966L286.979 248.35L285.909 246.09C285.352 244.847 282.888 241.514 280.424 238.633C271.638 228.351 269.314 225.243 267.919 221.741C266.571 218.521 265.967 213.944 266.85 213.944C267.036 213.944 267.594 214.735 268.059 215.696C269.546 218.747 274.427 224.678 279.262 229.198C284.608 234.226 288.652 239.254 290.465 243.209C294.835 252.53 295.067 252.756 307.339 256.09C309.385 256.654 307.386 258.01 303.992 258.406L300.924 258.745L301.575 260.27C301.947 261.174 302.365 262.869 302.551 264.168L302.877 266.485H309.013H315.149L320.169 259.818C322.959 256.203 325.748 252.53 326.398 251.683L327.514 250.101L326.677 246.768C326.027 244.169 325.934 242.418 326.166 239.424C326.398 235.864 326.352 235.412 325.562 234.848C324.4 234.113 322.401 229.085 321.982 225.978C321.703 223.718 321.564 223.549 319.472 222.701C316.265 221.402 313.243 218.577 309.106 212.984C301.761 203.041 296.787 193.211 295.067 185.415C294.649 183.55 294.184 179.483 294.044 176.375C293.905 173.268 293.301 168.184 292.65 165.076C291.069 157.45 291.023 150.331 292.464 146.603C293.533 143.891 294.649 142.366 295.114 142.931C295.253 143.1 295.439 145.699 295.486 148.749C295.578 151.857 295.857 154.964 296.09 155.755C296.555 157.111 296.601 157.111 297.763 154.286C299.762 149.484 304.457 143.891 306.456 143.891C307.339 143.891 306.921 145.868 305.248 149.258C301.482 156.772 298.414 168.014 299.437 170.33C299.716 170.952 299.948 172.873 299.948 174.624C299.948 178.861 301.064 184.963 302.598 188.861C305.666 196.883 314.126 209.99 318.775 213.944C321.703 216.374 322.401 216.487 323.377 214.509C323.842 213.549 325.469 211.063 327.003 208.973C330.024 204.905 334.394 197.222 336.718 191.855C337.555 190.047 338.345 188.522 338.578 188.522C339.414 188.522 339.461 189.765 338.764 193.324C337.555 199.821 333.976 207.956 329.095 215.357C327.7 217.447 327.607 217.899 327.747 221.119C327.84 223.097 328.118 224.678 328.397 224.678C328.63 224.678 329.838 223.662 331.001 222.362C332.163 221.119 334.952 218.803 337.137 217.221C339.322 215.639 342.622 212.928 344.481 211.233C346.341 209.538 347.968 208.295 348.154 208.464C349.362 209.99 344.481 216.656 336.951 223.831C334.673 226.034 332.488 228.407 332.07 229.142L331.372 230.441L333.185 229.255C334.719 228.294 335.835 228.068 339.693 228.068C348.665 228.068 361.309 231.91 361.309 234.678C361.309 235.469 360.612 235.525 354.708 235.186C351.036 235.017 345.783 234.622 342.947 234.283C337.834 233.774 334.766 234.17 334.069 235.469C333.883 235.808 333.371 237.842 332.953 239.989C332.116 243.83 332.116 243.887 333.139 246.259C334.069 248.576 334.208 248.689 335.975 248.576C336.997 248.463 342.668 248.293 348.526 248.18C354.429 248.067 360.287 247.841 361.588 247.615C366.283 246.768 365.028 249.593 359.682 251.796C356.149 253.208 351.966 253.886 342.25 254.564C338.02 254.903 333.79 255.412 332.86 255.751C331.465 256.259 329.652 258.293 323.935 265.92C316.218 276.202 314.591 279.309 313.197 286.314L312.453 289.986L313.754 291.738C314.452 292.642 315.986 296.088 317.101 299.308C319.565 306.37 320.169 308.799 319.612 309.477C319.007 310.212 316.962 307.443 313.429 301.059C311.709 298.065 310.036 295.523 309.617 295.41C308.409 295.127 306.875 297.161 306.41 299.76C305.666 303.941 307.758 313.375 310.872 319.59C312.732 323.375 312.685 324.561 310.686 323.318C308.594 321.962 305.666 317.951 304.085 314.11C303.249 312.132 302.365 310.607 302.086 310.72C301.808 310.889 299.437 312.697 296.787 314.731C292.324 318.29 292.046 318.573 292.324 320.042C292.836 322.64 293.951 325.296 296.787 330.663C299.762 336.312 300.088 337.668 298.414 337.668C297.066 337.668 292.65 333.883 291.209 331.51C289.814 329.194 287.862 324.109 287.862 322.81C287.862 321.285 287.025 321.623 284.422 324.222C281.028 327.668 279.494 329.872 279.494 331.341C279.494 333.318 281.679 338.12 284.004 341.171C287.629 345.86 296.88 353.43 304.178 357.724C306.875 359.249 307.572 359.475 309.757 359.136C311.895 358.854 312.732 358.402 315.056 356.142C318.496 352.696 319.472 352.074 323.981 350.605C329.234 348.854 332.581 346.538 335.789 342.301C337.276 340.267 338.531 338.459 338.531 338.233C338.531 337.95 337.648 338.063 336.579 338.346C333.883 339.08 324.446 338.515 320.82 337.386C317.334 336.256 313.568 333.939 312.871 332.414C312.639 331.849 312.546 331.228 312.639 331.115C312.778 330.945 315.056 331.228 317.752 331.68C323.888 332.809 334.162 332.866 337.509 331.793C340.112 330.945 343.738 328.403 345.411 326.256C346.294 325.07 349.781 316.652 349.502 316.313C349.409 316.256 347.828 316.369 345.922 316.595C340.949 317.273 336.579 316.595 333.464 314.675C329.048 312.019 329.792 311.398 337.602 311.341C345.272 311.228 348.247 310.438 353.779 306.878C359.078 303.489 362.843 299.308 366.144 293.15C369.444 286.992 372.698 282.981 375.813 281.286C377.3 280.495 378.648 279.026 380.554 276.202C381.995 273.998 383.39 272.021 383.669 271.795C384.087 271.513 391.525 253.378 391.525 252.643C391.525 252.53 390.223 253.095 388.643 253.943C386.179 255.186 384.97 255.412 381.066 255.412C377.114 255.468 376.417 255.355 376.278 254.564C376.185 253.83 377.114 253.152 380.415 251.739C390.595 247.333 394.314 242.248 394.314 232.757C394.314 226.43 390.177 209.312 385.528 196.431C384.459 193.493 382.507 187.618 381.205 183.437C379.904 179.257 377.905 173.664 376.835 170.952C375.72 168.297 374.79 165.811 374.79 165.415C374.79 162.986 368.608 150.84 363.773 143.778C359.775 137.959 357.916 136.095 353.267 133.27C348.014 130.106 343.97 129.033 339.089 129.372C334.626 129.711 333.976 129.146 336.16 126.886C338.345 124.683 341.088 123.948 345.922 124.231C349.641 124.457 350.478 124.683 353.732 126.717C355.731 127.903 357.544 129.033 357.776 129.146C358.009 129.259 357.776 128.468 357.219 127.394C352.709 118.525 348.851 106.039 350.618 106.039C351.733 106.039 359.357 119.711 366.934 135.134C368.282 137.902 370.467 141.97 371.722 144.06L374 147.902L375.999 138.128C377.068 132.761 378.23 126.321 378.509 123.835C378.834 121.35 379.253 119.09 379.439 118.864C379.625 118.581 380.089 119.316 380.415 120.559C381.391 123.835 381.159 132.423 379.904 141.066C379.299 145.247 378.788 150.727 378.788 153.213C378.741 157.393 378.881 158.128 380.833 163.212C381.949 166.263 383.018 168.749 383.158 168.749C383.297 168.749 384.087 165.359 384.924 161.178C386.551 153.156 387.713 148.975 388.364 148.975C389.108 148.975 388.689 159.483 387.574 169.483L386.458 179.596L388.271 185.019C389.247 188.013 391.246 193.945 392.687 198.126C396.731 209.82 401.752 232.588 401.752 239.141C401.752 242.87 400.729 246.429 396.359 257.671C393.942 263.886 391.99 269.14 391.99 269.422C391.99 269.648 394.035 269.874 396.545 269.874C400.915 269.874 420.393 272.868 433.734 275.58C436.895 276.202 439.591 276.597 439.684 276.484C439.824 276.315 439.126 275.637 438.15 274.902C433.827 271.682 427.923 268.575 421.183 265.863C417.139 264.281 413.838 262.756 413.838 262.473C413.838 261.626 417.139 261.231 421.043 261.626C428.295 262.304 435.826 265.807 445.402 272.981C452.282 278.123 454.56 279.252 458.697 279.704C460.742 279.93 464.74 280.721 467.529 281.456C474.92 283.433 478.174 283.998 482.637 283.998C488.029 283.998 492.352 284.845 496.908 286.653C499.046 287.444 500.813 288.066 500.859 287.896C500.952 287.783 501.789 284.845 502.765 281.456C503.741 278.01 505.322 272.417 506.298 269.027C509.18 259.027 509.738 249.197 508.343 234.283C507.553 225.921 507.367 219.424 507.135 195.584C506.949 177.223 505.322 165.585 500.999 151.8C500.069 148.862 498.442 143.382 497.419 139.654C496.35 135.925 495.374 132.479 495.188 132.027C494.816 131.01 490.958 127.677 481.707 120.163C475.85 115.418 470.969 111.915 462.695 106.548C461.532 105.813 460.51 104.853 460.417 104.401C460.091 103.215 465.019 103.949 469.203 105.813C476.175 108.808 487.285 116.434 493.793 122.536L494.956 123.609L495.467 121.011C495.792 119.542 496.536 116.943 497.14 115.192C498.628 110.672 498.628 103.893 497.047 98.5256L495.932 94.684L488.215 87.7351C471.666 72.8205 455.117 59.4312 437.313 46.6069C415.976 31.2404 414.024 30.3929 400.822 30.054C392.501 29.8845 388.457 29.0936 380.74 26.3253C372.559 23.3311 370.095 22.9921 358.148 22.9921C349.269 22.9921 346.108 22.7661 341.832 21.8622C337.137 20.8453 332.163 20.4499 330.861 21.0148ZM357.404 36.9463C361.077 41.5224 364.935 49.2057 367.538 57.115C369.863 64.3463 371.35 74.3459 370.188 75.1933C369.305 75.8712 367.771 72.5945 362.704 59.1488C361.216 55.2506 358.753 48.8667 357.172 44.9686C354.011 36.9463 353.314 34.2911 354.476 34.2911C354.894 34.2911 356.196 35.4775 357.404 36.9463ZM361.077 87.6221C361.914 88.3566 361.635 88.5261 358.055 89.8254C355.87 90.6164 351.175 92.1982 347.596 93.3281C328.49 99.4295 317.985 105.305 313.336 112.593C311.012 116.152 309.943 116.604 310.407 113.779C311.012 110.333 312.732 106.887 315.614 103.384C317.938 100.559 319.612 99.2036 323.749 96.7743C331.605 92.1417 341.692 88.5261 350.385 87.2267C354.197 86.6617 360.24 86.8877 361.077 87.6221ZM399.009 99.2601C401.194 99.5425 405.052 100.503 407.609 101.294C420.021 105.249 423.275 105.87 435.222 106.661C449.028 107.508 455.536 109.316 464.322 114.627C469.017 117.451 473.386 121.35 472.782 122.14C472.596 122.423 470.272 121.576 467.669 120.276C456.419 114.909 450.655 113.553 435.733 112.819C423.368 112.197 417.975 111.18 408.818 107.678C395.895 102.819 391.107 102.424 379.671 105.305L378.277 105.644L379.16 104.401C381.112 101.746 388.178 98.8081 392.92 98.7516C394.082 98.6951 396.824 98.9776 399.009 99.2601ZM378.044 258.575C378.044 259.536 373.953 262.417 370.885 263.603C366.655 265.298 363.401 265.863 355.824 266.202C345.644 266.711 340.112 267.501 336.114 269.083C332.163 270.665 327.979 273.716 325.562 276.88C322.726 280.495 321.936 279.365 323.935 274.507C326.306 268.744 332.581 263.716 339.926 261.683C342.436 260.948 346.992 260.553 356.428 260.214C364.377 259.931 370.606 259.423 372.466 258.914C376.231 257.954 378.044 257.841 378.044 258.575Z" fill="#C68282"/>
<path d="M144.918 49.093C145.104 54.46 145.383 59.0926 145.523 59.375C145.895 60.2225 153.658 59.3185 157.098 58.0757C158.818 57.3977 160.723 56.4373 161.281 55.8724C161.932 55.3074 163.42 51.8047 164.907 47.3416C166.302 43.161 167.464 39.6584 167.464 39.5454C167.464 39.4889 162.304 39.3759 156.028 39.3759H144.593L144.918 49.093Z" fill="#C68282"/>
<path d="M253.927 172.478C248.488 177.901 240.446 185.641 226.361 198.917C222.085 202.985 218.738 206.374 219.017 206.487C219.9 206.826 225.385 204.736 230.545 202.024C233.52 200.499 236.216 199.256 236.542 199.256C237.983 199.256 237.053 201.572 234.403 204.51C231.196 208.182 227.152 210.725 222.549 212.08C218.738 213.154 218.784 213.154 219.435 214.058C219.667 214.453 220.132 215.866 220.411 217.165C220.876 219.199 221.806 220.442 226.733 225.809C234.915 234.509 234.31 234.17 237.285 232.193C240.446 230.159 243.979 225.922 245.095 222.814C245.56 221.515 246.164 218.634 246.443 216.374C246.722 214.171 247.14 211.685 247.419 210.838C247.652 210.047 247.884 209.256 247.884 209.086C247.884 208.973 246.769 209.708 245.467 210.725C242.259 213.21 239.61 214.397 236.635 214.849C232.637 215.357 228.128 212.815 231.475 211.911C241.376 209.256 247.698 202.024 251.464 189.144C253.184 183.268 254.02 181.178 254.671 181.178C255.554 181.178 255.926 183.494 255.694 187.223C255.508 189.934 255.554 190.16 256.019 189.031C257.042 186.658 258.948 176.489 259.273 171.687C259.459 169.144 259.552 167.054 259.459 167.111C259.366 167.111 256.856 169.54 253.927 172.478Z" fill="#C68282"/>
<path d="M201.631 219.086C196.517 222.419 187.825 226.373 181.689 228.181C178.713 229.029 177.04 229.763 176.901 230.328C176.761 230.78 176.296 232.192 175.831 233.435C175.366 234.678 174.344 237.842 173.6 240.497C170.3 251.739 166.441 263.095 162.165 273.772C161.514 275.467 161.049 276.936 161.095 277.049C161.188 277.106 165.512 276.597 170.764 275.863C176.575 275.072 180.433 274.789 180.712 275.072C181.503 275.976 178.853 278.066 174.995 279.648C172.996 280.439 168.812 281.795 165.604 282.642C157.609 284.676 156.028 285.41 152.774 288.574C149.567 291.681 149.335 292.133 149.335 295.466C149.335 297.783 148.823 300.833 148.172 302.754C147.336 305.297 159.236 303.206 167.324 299.421C168.626 298.8 167.836 300.946 166.209 302.528C162.258 306.257 156.633 308.573 149.66 309.364C144.361 309.929 143.152 310.664 141.571 314.505C139.665 318.968 139.805 319.081 145.755 316.991C148.591 316.031 152.914 314.788 155.331 314.279C160.631 313.206 166.72 313.036 166.441 314.053C166.209 314.788 164.349 315.635 152.17 320.437C141.385 324.731 140.223 325.409 137.992 328.459C135.156 332.358 134.924 332.809 134.459 336.369C133.808 340.945 132.739 343.148 130.415 344.786C126.278 347.781 124.883 351.001 124.604 358.006L124.465 361.678L128.509 362.074C137.481 362.865 147.289 367.441 154.494 374.107C156.028 375.52 157.423 376.649 157.655 376.649C158.12 376.649 158.632 374.842 159.747 369.588C160.119 367.723 160.584 365.746 160.723 365.181C161.002 364.447 160.816 364.221 159.98 364.221C159.375 364.221 156.772 363.317 154.216 362.187C143.338 357.498 141.432 356.876 137.388 356.876C132.786 356.876 132.367 356.142 135.807 353.882C137.76 352.583 138.643 352.357 141.99 352.357C146.266 352.357 148.358 352.978 155.75 356.368C161.653 359.08 165.093 359.757 169.928 358.967C173.461 358.458 173.693 358.289 176.203 355.464C178.574 352.752 181.549 347.555 185.779 338.572C187.22 335.578 187.081 335.578 183.269 339.08C174.297 347.272 171.229 348.176 154.773 347.159C144.268 346.538 143.756 346.425 144.546 345.521C146.081 343.769 150.264 342.753 158.632 342.131C170.95 341.227 172.67 340.549 181.456 333.374C183.455 331.793 186.384 329.928 188.011 329.25C190.753 328.12 191.172 327.725 193.031 324.505C194.147 322.584 196.796 318.347 198.888 315.07C200.934 311.793 203.723 307.217 204.978 304.901C207.209 300.89 213.485 286.314 213.485 285.184C213.485 284.902 212.369 285.41 211.021 286.258C204.048 290.89 186.616 295.297 183.827 293.094C182.758 292.303 184.106 291.568 193.728 287.67C203.955 283.546 209.115 280.834 213.438 277.275C217.343 273.998 221.341 269.083 223.2 265.185C224.734 261.852 227.059 255.186 226.687 255.186C226.547 255.186 225.525 255.977 224.362 256.937C221.573 259.253 217.064 261.739 213.717 262.812C209.905 263.999 204.42 264.564 204.002 263.773C203.583 262.925 205.071 261.852 210.742 258.971C215.995 256.372 220.969 252.643 223.898 249.141C225.525 247.22 229.755 239.876 229.755 239.028C229.755 238.859 229.197 238.124 228.5 237.446C227.802 236.825 224.734 233.605 221.713 230.384C217.576 225.921 215.995 223.831 215.205 221.797C214.414 219.707 213.95 219.029 213.159 219.029C212.602 219.029 210.742 218.408 209.022 217.617C207.349 216.826 205.908 216.204 205.861 216.261C205.861 216.261 203.955 217.56 201.631 219.086Z" fill="#C68282"/>
<path d="M301.622 275.072C298.368 294.224 296.462 306.031 296.694 306.031C297.717 306.031 298.461 304.28 298.693 301.455C298.833 299.704 299.39 297.218 299.902 295.975C301.064 293.207 303.899 289.761 305.387 289.309C306.084 289.083 306.549 288.405 306.735 287.445C307.339 283.942 308.92 277.897 309.757 275.976L310.64 273.829H306.224C302.04 273.829 301.808 273.886 301.622 275.072Z" fill="#C68282"/>
<path d="M377.021 289.026C374.93 290.664 374.186 291.738 370.328 298.969C367.724 303.771 362.564 310.325 358.66 313.771C356.8 315.353 355.731 316.709 355.731 317.386C355.731 317.951 355.824 318.46 355.917 318.46C356.614 318.46 369.026 311.454 369.165 311.003C369.258 310.664 370.049 309.421 370.932 308.234C372.187 306.596 379.904 288.8 379.904 287.614C379.904 287.049 379.02 287.501 377.021 289.026Z" fill="#C68282"/>
<path d="M59.4776 294.958C57.8506 296.314 57.8042 296.314 57.5252 295.241C57.1069 293.715 55.9912 293.885 55.6193 295.523C55.4799 296.314 55.0615 297.048 54.6896 297.218C54.3177 297.387 54.0388 298.009 54.0388 298.63C54.0388 299.195 53.7134 299.817 53.3415 300.043C52.9232 300.212 52.6442 301.06 52.6442 302.02C52.6442 302.924 52.4583 303.884 52.1794 304.054C51.947 304.223 51.7145 304.901 51.7145 305.523C51.7145 306.088 51.5286 306.596 51.2497 306.596C51.0173 306.596 50.7848 307.5 50.7848 308.573C50.7848 309.647 50.5989 310.551 50.32 310.551C50.0875 310.551 49.8551 311.455 49.8551 312.528C49.8551 313.884 49.6227 314.505 49.1578 314.505C48.693 314.505 48.4605 315.127 48.4605 316.483C48.4605 317.556 48.2746 318.46 47.9957 318.46C47.7633 318.46 47.5308 319.194 47.5308 320.042C47.5308 321.85 46.2757 325.239 45.6249 325.239C45.3925 325.239 45.2065 326.652 45.2065 328.346C45.2065 331.002 45.3925 331.736 46.4152 332.979C47.5773 334.391 47.5773 334.561 47.1124 337.894C46.8335 339.758 46.4152 344.786 46.1362 348.967C45.5319 359.136 44.1838 371.678 43.7655 371.17C43.626 370.887 42.4174 366.367 41.1158 361.113L38.745 351.509L38.0013 327.499C37.5829 314.279 37.211 302.867 37.1645 302.076C37.0251 300.043 36.0024 314.279 35.3516 327.782C35.0727 334.165 34.7008 339.363 34.5613 339.306C34.4219 339.306 32.6554 335.295 30.703 330.437C26.1474 319.251 18.6632 304.732 21.7313 313.093C25.4501 323.262 28.8901 333.318 31.4468 341.623L34.3289 350.944L34.05 358.571C33.7711 366.932 33.957 366.819 31.6327 359.814C31.1214 358.176 30.61 356.933 30.5635 356.989C30.4706 357.102 31.2608 360.661 32.237 365.012C33.4921 370.322 34.05 373.655 33.957 375.463L33.8175 378.062L32.2835 374.729C30.5635 371.057 26.9841 366.141 25.6825 365.633C25.1712 365.464 24.5669 364.334 24.2415 363.204C23.5442 360.492 16.4319 340.323 16.06 339.928C15.9205 339.758 15.9205 340.154 16.153 340.775C17.1757 343.996 22.3821 361.622 22.6145 362.695C22.8469 363.825 22.661 363.938 20.8015 364.051C19.6859 364.108 18.3378 364.447 17.78 364.786C16.9897 365.294 16.6643 365.238 15.967 364.164C15.3627 363.204 14.8514 363.034 13.9217 363.317C12.2017 363.825 10.2493 366.029 10.1098 367.61C9.8774 369.701 9.13363 371.791 8.29689 372.638C7.87852 373.034 7.55312 373.712 7.55312 374.107C7.55312 374.503 7.22772 375.124 6.80935 375.576C6.43746 375.972 6.20503 376.763 6.298 377.271C6.43746 377.836 6.11206 378.74 5.6472 379.248C5.18235 379.757 4.76398 380.548 4.76398 380.887C4.76398 381.282 4.43858 381.904 4.06669 382.299C3.69481 382.694 3.41589 383.316 3.46238 383.655C3.50886 383.994 3.27643 384.898 2.95103 385.576C2.62563 386.31 2.48618 387.045 2.62563 387.214C2.76509 387.44 2.48618 387.948 1.92835 388.4C1.41701 388.852 1.09161 389.53 1.23106 389.926C1.32403 390.321 1.32403 390.83 1.13809 391.056C0.998635 391.225 0.626749 392.525 0.301349 393.88C-0.163508 396.14 -0.117022 396.423 0.626749 396.423C1.13809 396.423 1.55646 397.101 1.83538 398.513C2.39321 401.394 3.18346 401.451 3.88075 398.739C4.29912 397.101 4.71749 396.423 5.3218 396.423C6.01909 396.423 6.11206 396.14 5.87963 395.01C5.6472 393.824 5.74018 393.654 6.39098 393.937C7.08826 394.276 7.18123 394.106 6.99529 392.694C6.85583 391.79 6.57692 390.604 6.39098 389.982C6.06558 389.078 6.11206 389.022 6.99529 389.587C7.925 390.208 8.01797 390.095 8.01797 388.57C8.01797 387.158 8.15743 386.988 8.99417 387.214C9.83092 387.497 9.92389 387.384 9.64497 386.31C9.45903 385.576 9.552 385.124 9.8774 385.124C10.4352 385.124 10.3423 384.276 9.64497 382.13C9.36606 381.339 9.552 381.169 10.7606 381.169C12.2947 381.169 12.5736 380.717 11.6903 379.644C11.272 379.135 11.3649 379.079 12.1552 379.305C12.713 379.474 13.1314 379.361 13.1314 379.022C13.1314 378.005 12.0622 375.52 11.6439 375.52C11.4579 375.52 11.272 375.237 11.272 374.898C11.272 374.559 11.9228 374.955 12.713 375.746C14.4795 377.553 15.1768 377.61 14.8049 375.859C14.5725 374.672 14.6654 374.559 15.7811 374.842C16.8967 375.068 16.9432 375.011 16.6643 373.655C16.3854 372.243 16.4319 372.186 17.8729 372.525C19.0816 372.808 19.2675 372.751 19.0351 371.96C18.8027 371.226 18.9886 371 19.8718 371C21.3129 371 21.3129 370.548 19.9183 368.006C19.314 366.932 18.8956 365.859 19.0816 365.69C19.5464 365.068 22.8004 365.351 23.2188 366.029C23.7301 366.819 25.5896 374.277 27.9603 384.841C33.6316 410.32 37.7688 449.358 37.7688 477.041V487.323L36.0489 487.662C25.3571 489.696 20.6621 491.56 19.9183 493.989C19.314 495.853 20.4297 496.136 28.4252 495.966C36.9321 495.74 36.5602 495.627 38.2337 499.074C39.0704 500.825 39.3493 500.938 41.6271 500.938C45.9968 500.938 56.5026 499.752 60.0355 498.904C66.0786 497.379 71.285 494.441 71.6104 492.351C71.9358 490.204 68.2634 489.074 55.201 487.549L51.4821 487.097L51.6216 484.611C51.8075 480.713 54.4107 475.628 57.9436 472.239C58.6874 471.561 59.0593 470.996 58.7804 470.996C57.7577 470.996 56.0377 472.069 53.8994 474.046L51.7145 476.08V474.216C51.7145 470.092 53.2021 456.646 54.5502 448.68C57.2463 432.41 62.1273 418.399 67.6591 411.224C69.2861 409.134 69.0072 408.908 66.7759 410.603C64.2192 412.524 59.3847 419.303 57.4788 423.653L55.6658 427.777L55.5264 419.642C55.3869 410.433 55.5264 409.473 59.2452 397.835C63.6149 384.107 70.5877 366.989 78.0254 351.735C80.4427 346.764 81.14 345.747 81.8838 345.973C82.4881 346.142 83.2318 345.747 84.0221 344.786C85.6956 342.753 85.835 342.922 84.4405 345.408C83.1854 347.724 83.1854 348.798 84.5334 348.515C85.2307 348.346 85.3237 348.459 84.8588 349.024C83.7897 350.323 84.208 350.831 86.114 350.492C87.9269 350.21 87.9269 350.21 87.2761 351.396C86.5323 352.752 86.3464 355.182 86.9972 355.182C87.2296 355.182 87.3226 355.69 87.1831 356.368C86.9507 357.328 87.0901 357.498 88.0199 357.328C88.9961 357.159 89.1355 357.385 88.9961 358.684C88.8101 360.379 89.6469 360.831 90.716 359.532C91.0879 359.08 91.0414 359.588 90.5766 360.944C89.5539 363.882 89.6004 364.955 90.7625 364.503C91.5993 364.164 91.6458 364.334 91.3668 365.972C91.1344 367.61 91.1809 367.78 92.0176 367.497C92.7614 367.271 93.0403 367.61 93.4587 369.644C94.2954 373.429 95.8295 372.582 95.876 368.288C95.876 367.215 96.0619 367.102 97.0846 367.384C98.2002 367.723 98.2932 367.667 97.9678 366.424C97.7354 365.69 97.5494 364.447 97.4565 363.712C97.41 362.978 97.1311 362.13 96.8986 361.848C96.6197 361.509 96.5267 360.944 96.6197 360.605C96.7592 360.21 96.4338 359.419 95.876 358.854C95.3646 358.289 94.9462 357.385 94.9462 356.82C94.9462 356.255 94.7138 355.633 94.4814 355.464C94.2025 355.238 94.1095 354.617 94.2489 354.108C94.3884 353.487 94.1095 352.696 93.5517 352.074C93.0403 351.509 92.6219 350.775 92.6219 350.379C92.6219 349.984 92.2036 349.25 91.6922 348.685C90.9949 347.95 90.902 347.498 91.2739 346.933C91.6458 346.368 91.4598 345.86 90.5766 344.956C89.9258 344.222 89.368 343.205 89.368 342.696C89.368 342.131 88.9496 341.34 88.4382 340.888C87.8804 340.436 87.5085 339.871 87.555 339.589C87.6015 339.306 87.5085 338.629 87.2761 338.064C87.0901 337.555 87.0437 336.482 87.1366 335.691C87.2761 334.956 87.2296 334.448 87.0437 334.561C86.8577 334.73 86.3929 334.448 86.0675 333.939C85.2772 332.753 83.1389 331.454 81.9767 331.454C81.4654 331.454 80.7681 331.962 80.3962 332.584C79.7919 333.657 79.6989 333.657 77.793 332.753C76.166 331.962 75.4222 331.906 73.4234 332.414C72.0753 332.753 70.9596 332.979 70.8666 332.866C70.8202 332.81 71.8893 328.572 73.2839 323.488C74.6785 318.403 75.7012 314.11 75.6082 313.997C75.5152 313.884 72.9585 319.872 69.8904 327.273C66.8689 334.674 63.4289 343.035 62.2203 345.86C59.896 351.453 58.176 357.159 56.5955 365.012C55.201 371.734 55.108 368.797 56.3631 359.306C58.0366 346.933 62.5922 326.539 68.124 307.048C69.7975 301.229 70.9131 296.596 70.6342 296.822C69.751 297.5 62.4527 316.652 60.1749 324.392C55.6658 339.645 53.2486 352.922 50.32 377.779C49.2508 386.649 48.3676 394.106 48.2746 394.445C48.1816 394.728 47.9492 393.767 47.7633 392.242C46.88 385.406 49.1578 365.068 53.1556 343.883C54.1783 338.459 55.5264 331.171 56.1307 327.782C57.2463 321.511 60.3609 305.466 60.8257 303.602C60.9652 302.98 60.8257 302.641 60.3609 302.641C59.3382 302.641 59.4312 302.133 60.6863 300.947C61.616 299.986 61.616 299.873 60.9187 299.534C60.1749 299.195 60.1749 298.913 61.2441 296.766C62.8711 293.376 62.2203 292.698 59.4776 294.958ZM76.9563 333.488C77.0957 333.657 76.6774 334.787 76.0266 336.03C74.7714 338.346 74.9574 339.645 76.3984 339.08C77.1422 338.798 77.3282 338.911 77.1887 339.758C77.0957 340.549 77.3282 340.775 78.4903 340.719C79.8384 340.606 79.9314 340.775 79.8384 342.47C79.7454 343.883 78.2579 346.877 74.1671 353.882C67.7521 364.842 64.2192 371.508 60.082 380.435C58.5014 383.937 57.1069 386.819 57.0139 386.819C56.4561 386.819 62.0344 363.317 66.311 347.555C69.565 335.465 69.7045 335.069 71.2385 334.165C72.819 333.205 76.352 332.81 76.9563 333.488ZM29.6803 371.847C30.4706 373.203 31.7722 375.972 32.6089 378.005C33.9105 381.226 34.0965 382.468 34.5148 389.191C35.0262 397.101 35.9559 405.066 37.0715 410.998C37.4434 412.976 37.7223 416.026 37.7223 417.778L37.6758 420.998L37.211 417.891C34.9797 401.733 31.7722 387.271 26.7982 371.057C26.1939 369.079 25.6825 367.384 25.6825 367.215C25.6825 366.537 28.3787 369.701 29.6803 371.847Z" fill="#C68282"/>
<path d="M400.59 305.466C398.544 306.088 396.081 306.54 395.104 306.54C393.152 306.596 386.226 309.929 365.772 320.663C352.43 327.612 351.268 328.46 348.665 333.092C346.945 336.086 345.876 336.425 360.38 329.476C367.864 325.861 372.326 323.375 374.511 321.567C379.996 317.104 387.574 312.98 395.244 310.325C397.893 309.421 406.261 304.336 405.006 304.393C404.634 304.393 402.635 304.901 400.59 305.466Z" fill="#C68282"/>
<path d="M422.113 308.008C401.659 312.415 399.892 312.98 392.222 317.612C388.41 319.929 382.739 323.092 379.671 324.674C376.603 326.2 374.325 327.442 374.651 327.499C374.976 327.499 377.347 326.99 379.997 326.369C387.016 324.731 395.476 323.601 403.332 323.149C409.05 322.866 410.398 322.64 411.096 321.793C411.514 321.284 414.21 319.364 416.999 317.669C421.648 314.788 431.968 306.935 431.968 306.313C431.968 305.918 431.549 305.974 422.113 308.008Z" fill="#C68282"/>
<path d="M378.044 336.934C374.046 337.273 367.074 338.29 363.169 339.137C354.569 341.001 341.32 345.634 341.32 346.82C341.32 347.159 341.832 347.272 342.622 347.103C343.319 346.933 345.876 346.255 348.293 345.634C355.963 343.657 361.216 343.318 381.624 343.318C402.31 343.318 412.676 343.826 422.903 345.351C430.434 346.481 438.522 348.289 439.312 349.08C439.684 349.475 440.521 349.475 441.962 348.967C445.913 347.611 446.285 347.724 425.692 342.809C409.933 339.024 404.262 337.894 396.36 337.103C391.2 336.595 382.879 336.482 378.044 336.934Z" fill="#C68282"/>
<path d="M273.684 340.493C272.94 341.114 271.173 341.905 269.825 342.301C267.966 342.809 267.083 343.374 266.246 344.674C264.712 347.216 263.875 349.419 263.085 353.091L262.388 356.311L263.782 357.215C264.665 357.78 265.502 359.023 266.107 360.662C266.943 362.978 266.99 363.656 266.525 368.91C266.2 372.243 265.456 376.593 264.619 379.418L263.271 384.276L264.294 385.576C265.549 387.271 268.198 389.361 269.593 389.756C271.173 390.265 273.823 387.892 276.426 383.655C277.728 381.508 279.216 379.7 279.68 379.587C280.471 379.361 280.517 379.644 280.285 382.525C280.145 384.276 279.587 386.819 279.076 388.175C278.518 389.474 278.1 390.717 278.1 390.943C278.1 391.169 279.03 391.338 280.192 391.338C283.306 391.338 282.888 393.09 279.262 395.519L277.867 396.479L280.285 396.253C285.166 395.801 291.627 390.547 295.067 384.22C296.183 382.243 297.345 380.774 298.321 380.265C299.251 379.813 300.274 378.57 301.017 377.102C302.226 374.559 304.597 367.667 304.597 366.65C304.597 366.368 303.342 365.407 301.808 364.56C297.252 362.017 287.955 354.956 283.771 350.944C281.493 348.741 278.983 345.634 277.542 343.318C276.24 341.114 275.171 339.363 275.125 339.363C275.125 339.363 274.474 339.871 273.684 340.493Z" fill="#C68282"/>
<path d="M360.612 347.95C357.544 348.12 352.431 348.967 349.223 349.815C346.016 350.605 341.413 351.679 338.996 352.187C336.579 352.639 333.232 353.713 331.558 354.56L328.537 356.029L367.817 356.311C397.336 356.537 408.26 356.82 411.793 357.441C416.441 358.176 416.488 358.176 420.625 356.65C428.016 353.826 432.293 351.679 431.27 351.227C429.783 350.549 419.695 349.08 412.444 348.402C404.541 347.724 368.701 347.385 360.612 347.95Z" fill="#C68282"/>
<path d="M229.29 354.165C228.407 354.786 228.128 355.351 228.128 356.876C228.128 357.95 228.36 358.854 228.593 358.854C228.872 358.797 230.313 358.571 231.8 358.345C236.681 357.498 244.165 360.097 245.746 363.204C246.676 365.125 245.606 365.407 240.4 364.729C237.75 364.39 234.124 364.221 232.312 364.39C229.569 364.673 228.872 364.955 228.035 366.198C226.64 368.119 226.687 370.548 228.081 372.525L229.243 374.107L230.266 372.751C232.126 370.379 236.216 368.966 237.007 370.548C237.192 370.944 236.635 371.847 235.612 372.864C234.682 373.768 233.613 375.237 233.195 376.141C232.59 377.61 232.59 377.836 233.474 378.909C233.985 379.531 234.403 380.548 234.403 381.226C234.403 382.299 234.45 382.299 235.937 380.943C238.401 378.627 242.399 376.649 244.537 376.649C247.233 376.649 247.047 377.553 243.654 380.604C242.073 382.016 239.656 384.672 238.215 386.593C236.728 388.513 235.101 390.208 234.543 390.434C233.241 390.943 233.148 392.525 234.31 393.767C235.612 395.18 238.308 394.954 241.841 393.033C243.979 391.903 245.792 391.338 247.373 391.338C249.465 391.338 249.79 391.169 250.394 389.756C251.231 387.835 253.741 384.954 255.554 383.824C257.786 382.468 260.249 373.825 260.528 366.48L260.668 363.373L258.762 363.486C257.274 363.599 256.67 363.373 255.787 362.243C255.136 361.396 254.16 360.831 253.416 360.831C252.719 360.831 251.092 360.04 249.79 359.08C245.374 355.746 231.847 352.526 229.29 354.165Z" fill="#C68282"/>
<path d="M318.31 361.735L316.915 363.147L348.572 362.921C391.06 362.582 399.66 363.091 412.118 367.045C416.627 368.401 417.371 368.514 418.44 367.836C419.091 367.441 420.718 366.537 421.973 365.859L424.297 364.616L421.787 363.882C417.557 362.695 409.236 361.339 402.449 360.831C398.87 360.548 378.788 360.266 357.823 360.266H319.705L318.31 361.735Z" fill="#C68282"/>
<path d="M320.634 367.384C319.612 367.497 317.241 367.723 315.428 367.949C312.918 368.175 312.034 368.514 312.034 369.079C312.034 369.757 317.008 369.87 345.876 369.87C384.831 369.87 381.763 369.587 408.26 376.593C410.677 377.271 413.187 377.779 413.885 377.779C415.326 377.779 420.346 375.576 420.346 374.954C420.346 374.107 412.118 371 406.4 369.644C396.871 367.497 395.988 367.441 358.985 367.328C338.903 367.271 321.657 367.271 320.634 367.384Z" fill="#C68282"/>
<path d="M121.164 371.621C120.467 372.977 119.398 375.463 118.793 377.214C118.143 378.909 115.539 385.745 112.983 392.412C110.472 399.021 107.776 406.648 107.079 409.36C105.684 414.501 104.336 424.049 103.918 432.127C103.639 436.816 103.686 437.042 104.848 438.455C106.707 440.658 107.079 440.376 106.754 436.873C106.521 434.726 106.661 433.031 107.265 430.941C108.009 428.173 109.682 425.913 110.333 426.817C110.519 427.043 110.751 429.133 110.844 431.449C111.123 438.511 114.517 445.008 119.398 447.833L121.536 449.019L123.814 446.025C125.022 444.387 126.045 442.748 126.092 442.409C126.092 442.07 125.534 441.223 124.883 440.432C122.838 438.229 120.606 433.483 118.979 428.229C117.678 423.823 117.492 422.58 117.492 417.608C117.492 413.258 117.678 411.507 118.329 410.094C119.351 407.835 119.816 407.835 120.885 409.981L121.722 411.62L123.21 407.27C125.208 401.451 127.347 396.988 128.183 396.988C129.764 396.988 128.648 405.914 125.673 417.269C125.115 419.247 124.697 420.941 124.697 421.111C124.697 421.224 125.999 421.167 127.626 420.941C130.089 420.659 135.017 421.28 136.923 422.128C137.248 422.297 138.038 420.998 138.782 419.134C139.48 417.382 141.292 414.219 142.78 412.128C146.266 407.326 147.103 404.558 147.289 396.988C147.475 390.321 148.172 387.666 150.264 385.971C151.054 385.35 151.752 384.107 151.938 383.203C152.17 381.791 151.984 381.282 150.683 379.926C148.172 377.384 139.201 372.243 135.156 371C133.111 370.379 129.439 369.701 126.975 369.475L122.466 369.136L121.164 371.621Z" fill="#C68282"/>
<path d="M307.479 376.48C306.968 377.949 306.689 379.248 306.875 379.361C307.061 379.418 326.678 379.587 350.432 379.7C374.186 379.813 394.965 380.096 396.638 380.265C398.312 380.491 400.497 380.435 401.519 380.209C403.332 379.7 403.286 379.644 398.498 378.401C395.802 377.723 390.921 376.48 387.574 375.633L381.531 374.164L344.993 373.938L308.455 373.768L307.479 376.48Z" fill="#C68282"/>
<path d="M307.386 386.197C307.386 387.101 308.037 387.384 314.917 389.022C327.096 392.016 339.508 393.598 351.036 393.598C357.312 393.598 358.799 393.428 363.82 391.96C366.888 391.056 370.235 390.152 371.211 389.926C373.07 389.587 373.21 389.304 372.373 387.101L371.862 385.689H339.6C319.798 385.689 307.386 385.915 307.386 386.197Z" fill="#C68282"/>
<path d="M310.175 393.316C310.175 393.428 311.941 399.982 314.126 407.835C316.265 415.687 318.961 426.195 320.123 431.223C322.261 440.432 322.773 442.127 325.05 448.115C325.748 449.98 326.445 452.07 326.631 452.804C326.956 453.991 327.235 454.047 331.326 454.047C334.394 454.047 338.02 454.612 343.738 455.968C352.663 458.115 361.588 459.301 366.888 459.019L370.374 458.849L370.467 453.765C370.746 441.223 372.001 409.586 372.698 398.174L372.884 394.615L370.699 395.01C369.491 395.236 366.516 396.027 364.098 396.818C361.681 397.553 357.916 398.344 355.731 398.513C347.782 399.134 326.677 396.875 315.102 394.163C309.757 392.864 310.175 392.977 310.175 393.316Z" fill="#C68282"/>
<path d="M125.441 426.704C123.535 427.382 125.72 434.048 128.881 437.269C131.67 440.15 133.157 439.02 134.97 432.692C136.086 428.851 136.086 427.721 135.063 427.212C133.994 426.704 126.603 426.309 125.441 426.704Z" fill="#C68282"/>
</svg>
